<?xml version="1.0" encoding="UTF-8" standalone="no"?>
<!-- Generator: Adobe Illustrator 15.0.0, SVG Export Plug-In . SVG Version: 6.00 Build 0)  -->
<svg xmlns:dc="http://purl.org/dc/elements/1.1/" xmlns:cc="http://creativecommons.org/ns#" xmlns:rdf="http://www.w3.org/1999/02/22-rdf-syntax-ns#" xmlns:svg="http://www.w3.org/2000/svg" xmlns="http://www.w3.org/2000/svg" xmlns:sodipodi="http://sodipodi.sourceforge.net/DTD/sodipodi-0.dtd" xmlns:inkscape="http://www.inkscape.org/namespaces/inkscape" version="1.1" id="Layer_1" x="0px" y="0px" width="64px" height="64px" viewBox="0 0 64 64" enable-background="new 0 0 64 64" xml:space="preserve" inkscape:version="0.91 r13725" sodipodi:docname="Emojione_1F4A1_CFL.svg"><metadata id="metadata25"><rdf:RDF><cc:Work rdf:about=""><dc:format>image/svg+xml</dc:format><dc:type rdf:resource="http://purl.org/dc/dcmitype/StillImage"/><dc:title/></cc:Work></rdf:RDF></metadata><defs id="defs23"><linearGradient id="linearGradient9612"><stop style="stop-color:white;stop-opacity:1;" offset="0" id="stop9614"/><stop style="stop-color:white;stop-opacity:0;" offset="1" id="stop9616"/></linearGradient><linearGradient id="linearGradient4088"><stop style="stop-color:black;stop-opacity:0.16304348;" offset="0" id="stop4090"/><stop style="stop-color:#2c2c2c;stop-opacity:0.88043481;" offset="1" id="stop4092"/></linearGradient></defs><sodipodi:namedview pagecolor="#ffffff" bordercolor="#666666" borderopacity="1" objecttolerance="10" gridtolerance="10" guidetolerance="10" inkscape:pageopacity="0" inkscape:pageshadow="2" inkscape:window-width="1920" inkscape:window-height="986" id="namedview21" showgrid="false" inkscape:zoom="10.440639" inkscape:cx="22.805676" inkscape:cy="38.267494" inkscape:window-x="-11" inkscape:window-y="-11" inkscape:window-maximized="1" inkscape:current-layer="Layer_1"/><g id="g5910" style="fill:#ffce31;fill-opacity:1" transform="matrix(0.99956268,0,0,1.0329583,0.0139941,-0.21384378)"><g id="g5920" style="fill:#ffce31;fill-opacity:1;stroke:#fec100;stroke-width:0.5;stroke-miterlimit:4;stroke-dasharray:none;stroke-opacity:1"><path inkscape:connector-curvature="0" id="path4055" d="M 26.062674,5.8322882 C 25.612396,5.4397286 25.593632,5.2042847 24.693073,5.2042847 c -0.90056,0 -1.041273,0.1805108 -1.444647,0.5181369 -0.403375,0.3375113 -0.619138,0.6594267 -0.619138,1.0832938 l 0,29.1744296 c 0,0.612291 -0.150084,0.769292 0.300188,0.675137 0.45028,-0.09404 2.401493,0.01491 2.457777,-0.266868 0.611751,-10.328672 -0.0334,-20.236832 0.675421,-30.5561258 z" style="display:inline;fill:#ffce31;fill-opacity:1;fill-rule:evenodd;stroke:#fec100;stroke-width:0.5;stroke-linecap:round;stroke-linejoin:round;stroke-miterlimit:4;stroke-dasharray:none;stroke-opacity:1" sodipodi:nodetypes="cscssccc"/><path inkscape:connector-curvature="0" id="path4046" style="display:inline;fill:#ffce31;fill-opacity:1;fill-rule:evenodd;stroke:#fec100;stroke-width:0.5;stroke-linecap:round;stroke-linejoin:round;stroke-miterlimit:4;stroke-dasharray:none;stroke-opacity:1" d="m 32.040618,8.6610681 c 0.431518,0 0.881382,0.2254659 0.881382,0.5445129 l 0,26.146581 c 0,0.643717 -0.105732,1.007834 1.000709,1.255882 1.106439,0.248058 2.632468,6.31e-4 2.795285,-0.23533 0.162818,-0.236017 0.112575,-0.471002 0.112575,-0.926295 l 0,-29.6898776 c 0,-0.8478505 -1.088177,-1.4680093 -1.754215,-1.4680093 l -3.035732,0 -3.03573,0 c -0.666038,0 -1.754214,0.6202048 -1.754214,1.4680093 l 0,29.6898776 c 0,0.455293 -0.05025,0.690391 0.112573,0.926295 0.162815,0.236018 1.688846,0.483388 2.795287,0.23533 1.106439,-0.24806 1.000603,-0.612177 1.000596,-1.255882 L 31.158866,9.205581 c -3e-6,-0.319047 0.450232,-0.5445129 0.881752,-0.5445129 z" sodipodi:nodetypes="sssssssssssssssss"/><path sodipodi:nodetypes="cscssccc" style="display:inline;fill:#ffce31;fill-opacity:1;fill-rule:evenodd;stroke:#fec100;stroke-width:0.5;stroke-linecap:round;stroke-linejoin:round;stroke-miterlimit:4;stroke-dasharray:none;stroke-opacity:1" d="m 37.936999,5.8322882 c 0.450278,-0.3925596 0.469042,-0.6280035 1.369601,-0.6280035 0.90056,0 1.041273,0.1805108 1.444647,0.5181369 0.403375,0.3375113 0.619138,0.6594267 0.619138,1.0832938 l 0,29.1744296 c 0,0.612291 0.150084,0.769292 -0.300188,0.675137 -0.45028,-0.09404 -2.401493,0.01491 -2.457777,-0.266868 -0.611751,-10.328672 0.0334,-20.236832 -0.675421,-30.5561258 z" id="path5936" inkscape:connector-curvature="0"/></g></g><g id="g3"><path d="m 19.92669,37.010994 c 0.231184,0.364499 0.463037,4.728207 0.69431,5.091006 2.804,4.393 3.482,2.586 4.317,6.898 l 0,0 14.125,0 c 0.838,-4.313 1.513,-2.505 4.315,-6.898 0.231344,-0.362799 0.463264,-4.726507 0.694509,-5.091006" style="fill:#eff0f1;fill-opacity:1" id="path4160" inkscape:connector-curvature="0" sodipodi:nodetypes="ccccccc"/><rect x="24.852" y="49.958" width="14.338" height="1.84" id="rect9" fill="#94989B"/><rect x="25.852" y="53.638" width="12.338" height="1.84" id="rect11" fill="#94989B"/><polygon points="39.189,49.958 25.852,53.638 25.852,55.478 39.189,51.798  " id="polygon13" fill="#94989B"/><rect x="26.852" y="57.317" width="10.338" height="1.84" id="rect15" fill="#94989B"/><polygon points="38.189,53.638 26.852,57.317 26.852,59.157 38.189,55.478  " id="polygon17" fill="#94989B"/><path d="M28,58c0,2.209,1.791,4,4,4s4-1.791,4-4H28z" id="path19" fill="#94989B"/></g></svg>